# xmcd
#
# Track frame offsets:
#	150
#	11850
#	28825
#	52975
#	66175
#	80675
#	96425
#	113825
#	130400
#	153525
#	171825
#	189625
#
# Disc length: 2740 seconds
#
# Revision: 1
# Processed by: cddbd v1.5.2PL0 Copyright (c) Steve Scherf et al.
# Submitted via: EasyCDDAExtractor 6.2.0.3
#
DISCID=a80ab20c
DTITLE=Paulette Poulin - Poeme d'amour
DYEAR=2007
DGENRE=Western
TTITLE0=Mes grands amis
TTITLE1=Le vagabond fleuri
TTITLE2=Toi mon enfant
TTITLE3=On est ensemble
TTITLE4=Mon unique amour
TTITLE5=Petite Aurore
TTITLE6=Poeme d'amour
TTITLE7=Amour eternel
TTITLE8=Oh mon cheri
TTITLE9=J'ai fait mon choix
TTITLE10=Pour ta fete papa
TTITLE11=Mon p'tit Ford
EXTD=
EXTT0=
EXTT1=
EXTT2=
EXTT3=
EXTT4=
EXTT5=
EXTT6=
EXTT7=
EXTT8=
EXTT9=
EXTT10=
EXTT11=
PLAYORDER=
